<svg width="40" height="40" viewBox="0 0 40 40" fill="none" xmlns="http://www.w3.org/2000/svg">
<path d="M26.8539 25.0637H14.3221V21.4832H26.8539M32.2247 17.9026H14.3221V14.3221H32.2247M32.2247 10.7416H14.3221V7.16105H32.2247M35.8053 0H10.7416C8.75439 0 7.16105 1.59333 7.16105 3.58053V28.6442C7.16105 30.6314 8.77229 32.2247 10.7416 32.2247H35.8053C37.7925 32.2247 39.3858 30.6314 39.3858 28.6442V3.58053C39.3858 1.59333 37.7746 0 35.8053 0ZM3.58053 7.16105V35.8053H32.2247V39.3858H3.58053C2.63091 39.3858 1.72019 39.0086 1.04871 38.3371C0.377233 37.6656 0 36.7549 0 35.8053V7.16105H3.58053Z" fill="#1B4D3E"/>
</svg>
